<?xml version="1.0" encoding="UTF-8"?>
<!DOCTYPE svg PUBLIC "-//W3C//DTD SVG 1.1//EN" "http://www.w3.org/Graphics/SVG/1.1/DTD/svg11.dtd">
<!-- Creator: CorelDRAW -->
<svg xmlns="http://www.w3.org/2000/svg" xml:space="preserve" width="106.801mm" height="15.1474mm" version="1.1" style="shape-rendering:geometricPrecision; text-rendering:geometricPrecision; image-rendering:optimizeQuality; fill-rule:evenodd; clip-rule:evenodd"
viewBox="0 0 331.03 46.95"
 xmlns:xlink="http://www.w3.org/1999/xlink"
 xmlns:xodm="http://www.corel.com/coreldraw/odm/2003">
 <defs>
  <style type="text/css">
   <![CDATA[
    .fil0 {fill:black}
   ]]>
  </style>
 </defs>
 <g id="Capa_x0020_1">
  <metadata id="CorelCorpID_0Corel-Layer"/>
  <path class="fil0" d="M70.38 11.7l0 35.25 -11.61 0 0 -35.25 -58.78 0 0 -11.7 70.38 0 0 11.7zm94.03 23.57l47.17 0 0 -23.57 -47.17 0 0 23.57zm58.78 0l0 11.68 -70.38 0 0 -11.68 0 -23.57 0 -11.7 70.38 0 0 11.7 0 23.57zm-135.18 0l58.78 0 0 11.68 -70.38 0 0 -11.68 0 -5.96 0 -11.74 58.78 0 0 -5.88 -58.78 0 0 -11.7 70.38 0 0 11.7 0 5.88 0 11.74 -58.78 0 0 5.96z"/>
  <path class="fil0" d="M245.13 41.07l23.57 0 0 -11.77 -23.57 0 0 11.77zm50.7 -17.66l5.82 0 23.57 0 5.82 0 0 23.54 -5.82 0 0 -17.66 -8.9 0 0 5.88 -5.86 0 0 -5.88 -8.81 0 0 17.66 -5.82 0 0 -23.54zm-13.59 0l5.86 0 0 23.54 -5.86 0 0 -23.54zm0 -8.81l5.86 0 0 5.88 -5.86 0 0 -5.88zm-42.93 14.69l0 -5.88 0 -8.81 5.82 0 0 8.81 23.57 0 5.82 0 0 5.88 0 11.77 0 5.88 -5.82 0 -23.57 0 -5.82 0 0 -5.88 0 -11.77z"/>
 </g>
</svg>
